<?xml version="1.0" encoding="utf-8"?>
<!-- Generator: Adobe Illustrator 22.1.0, SVG Export Plug-In . SVG Version: 6.00 Build 0)  -->
<svg version="1.1" id="レイヤー_1" xmlns="http://www.w3.org/2000/svg" xmlns:xlink="http://www.w3.org/1999/xlink" x="0px"
	 y="0px" viewBox="0 0 1024 1024" style="enable-background:new 0 0 1024 1024;" xml:space="preserve">
<style type="text/css">
	.st0{fill:#59ACDC;}
</style>
<g>
	<path class="st0" d="M752,857c-83.6,0-164.2,14.6-240,41.8C436.2,871.6,355.6,857,272,857s-164.2,14.6-240,41.8v36
		c75.8-27.1,156.4-41.8,240-41.8s164.2,14.6,240,41.8c75.8-27.1,156.4-41.8,240-41.8s164.2,14.6,240,41.8v-36
		C916.2,871.6,835.6,857,752,857z"/>
</g>
<g>
	<g>
		<path class="st0" d="M503,596.5h-56.7c0,34.1,6.8,45.7,9.4,50.2c20,34-7.1,54.1-10.3,56.3c-4.3,3-12.1,7-22.9,7
			c-3.8,0-7.9-0.5-12.3-1.7c-30.3-8.2-80.2-54.5-113.2-113.8c-36.4-5.5-69.9-22.7-96.1-49.4C169.3,513,152,470.5,152,425.5V249.2
			c-41.1,7.1-81.2,17.6-120,31.5v582c75.8-27.1,156.4-41.8,240-41.8c80.3,0,157.8,13.5,231,38.7V596.5z"/>
	</g>
	<g>
		<path class="st0" d="M872,249.2v176.3c0,94.3-76.7,171-171,171H518v264.2c74.1-25.8,152.6-39.7,234-39.7
			c83.6,0,164.2,14.6,240,41.8v-582C953.2,266.9,913.1,256.3,872,249.2z"/>
	</g>
</g>
<path class="st0" d="M701,47.2H323c-74.6,0-135,60.4-135,135v243.3c0,73.5,58.8,133.3,131.9,134.9c33.7,71.6,95.2,119.7,105,112.9
	c10.6-7.3-22.7-8.5-12.8-112.8H701c74.6,0,135-60.4,135-135V182.2C836,107.7,775.6,47.2,701,47.2z M331.3,383c0,8.3-6.7,15-15,15
	h-18.5c-8.3,0-15-6.7-15-15V224c0-8.3,6.7-15,15-15h18.5c8.3,0,15,6.7,15,15V383z M433,491c0,8.3-6.7,15-15,15h-18.4
	c-8.3,0-15-6.7-15-15V116c0-8.3,6.7-15,15-15H418c8.3,0,15,6.7,15,15V491z M534.7,383c0,8.3-6.7,15-15,15h-18.5c-8.3,0-15-6.7-15-15
	V224c0-8.3,6.7-15,15-15h18.5c8.3,0,15,6.7,15,15V383z M636.4,446c0,8.3-6.7,15-15,15H603c-8.3,0-15-6.7-15-15V161
	c0-8.3,6.7-15,15-15h18.4c8.3,0,15,6.7,15,15V446z M738.1,398c0,8.3-6.7,15-15,15h-18.5c-8.3,0-15-6.7-15-15V209c0-8.3,6.7-15,15-15
	h18.5c8.3,0,15,6.7,15,15V398z"/>
</svg>
